<?xml version="1.0" encoding="UTF-8" standalone="no"?>
<!-- Generator: Adobe Illustrator 21.0.0, SVG Export Plug-In . SVG Version: 6.00 Build 0)  -->

<svg
   xmlns:dc="http://purl.org/dc/elements/1.1/"
   xmlns:cc="http://creativecommons.org/ns#"
   xmlns:rdf="http://www.w3.org/1999/02/22-rdf-syntax-ns#"
   xmlns:svg="http://www.w3.org/2000/svg"
   xmlns="http://www.w3.org/2000/svg"
   xmlns:sodipodi="http://sodipodi.sourceforge.net/DTD/sodipodi-0.dtd"
   xmlns:inkscape="http://www.inkscape.org/namespaces/inkscape"
   version="1.1"
   id="Layer_1"
   x="0px"
   y="0px"
   viewBox="0 0 100.355 100.352"
   style="enable-background:new 0 0 100.355 100.352;"
   xml:space="preserve"
   sodipodi:docname="email.svg"
   inkscape:version="0.92.4 (5da689c313, 2019-01-14)"><metadata
   id="metadata9"><rdf:RDF><cc:Work
       rdf:about=""><dc:format>image/svg+xml</dc:format><dc:type
         rdf:resource="http://purl.org/dc/dcmitype/StillImage" /></cc:Work></rdf:RDF></metadata><defs
   id="defs7" /><sodipodi:namedview
   pagecolor="#ffffff"
   bordercolor="#666666"
   borderopacity="1"
   objecttolerance="10"
   gridtolerance="10"
   guidetolerance="10"
   inkscape:pageopacity="0"
   inkscape:pageshadow="2"
   inkscape:window-width="1366"
   inkscape:window-height="706"
   id="namedview5"
   showgrid="false"
   inkscape:zoom="3.3258371"
   inkscape:cx="95.928962"
   inkscape:cy="35.996436"
   inkscape:window-x="-8"
   inkscape:window-y="-8"
   inkscape:window-maximized="1"
   inkscape:current-layer="Layer_1" />
<path
   d="m 85.976,34.251 h -1.5 1.5 C 79.765,20.488 66.669,11.655 51.169,11.655 c -21.098,0 -38.263,17.164 -38.263,38.261 0,21.097 17.165,38.261 38.263,38.261 8.017,0 15.692,-2.453 22.196,-7.094 l -1.742,-2.442 c -5.993,4.276 -13.065,6.536 -20.454,6.536 -19.444,0 -35.263,-15.818 -35.263,-35.261 0,-19.443 15.819,-35.261 35.263,-35.261 14.397,0 25.968,7.269 31.807,19.945 0,0 2.245497,4.725125 2.258285,10.578076 0.01279,5.852951 0.249711,4.520073 -0.747904,8.938895 C 83.488766,58.535794 79.314,63.199 74.805,63.199 c -4.4,0 -8.405,-4.022 -8.561,-8.507 0.459,-1.513 0.711,-3.115 0.711,-4.775 0,-9.094 -7.397,-16.493 -16.49,-16.493 -9.095,0 -16.494,7.398 -16.494,16.493 0,9.094 7.399,16.492 16.494,16.492 5.738,0 10.796,-2.95 13.75,-7.41 1.832,4.148 5.999,7.2 10.59,7.2 6.164,0 11.253169,-6.745457 12.080029,-11.331338 0.82686,-4.585881 0.69981,-4.338384 0.850074,-10.007233 C 87.885367,39.19158 85.976,34.251 85.976,34.251 Z M 50.464,63.408 c -7.441,0 -13.494,-6.053 -13.494,-13.492 0,-7.44 6.053,-13.493 13.494,-13.493 7.438,0 13.49,6.053 13.49,13.493 0,7.439 -6.052,13.492 -13.49,13.492 z"
   id="path2"
   style="stroke:#d40000;stroke-width:3;stroke-miterlimit:4;stroke-dasharray:none;stroke-opacity:1;fill:#d40000"
   inkscape:connector-curvature="0"
   sodipodi:nodetypes="cccsssccsssczzscsssscszzcsssss" />
</svg>